<svg xmlns="http://www.w3.org/2000/svg" width="666.667" height="666.667" preserveAspectRatio="xMidYMid meet" version="1.0" viewBox="0 0 500 500"><metadata>Created by potrace 1.11, written by Peter Selinger 2001-2013</metadata><g fill="#000" stroke="none"><path d="M2060 4801 c0 -5 -19 -9 -42 -10 -87 -4 -107 -8 -124 -22 -11 -9 -15 -9 -10 -1 4 6 3 12 -3 12 -5 0 -12 -4 -16 -9 -3 -6 -14 -8 -25 -6 -11 2 -20 0 -20 -4 0 -5 -11 -7 -25 -6 -14 2 -25 -1 -25 -7 0 -5 -6 -8 -12 -5 -7 2 -29 -2 -50 -9 -20 -7 -39 -10 -42 -7 -3 4 -6 1 -6 -5 0 -7 -3 -11 -7 -11 -18 3 -73 -14 -73 -23 0 -5 -5 -6 -10 -3 -6 4 -17 1 -25 -5 -8 -7 -15 -9 -15 -5 0 5 -10 0 -22 -11 -12 -10 -19 -14 -15 -8 8 14 -96 -35 -105 -50 -4 -6 -8 -7 -8 -3 0 4 -10 2 -22 -5 -13 -7 -27 -12 -31 -13 -4 0 -11 -6 -16 -13 -5 -8 -12 -14 -17 -14 -22 -1 -54 -19 -54 -29 0 -7 -3 -9 -7 -6 -3 4 -28 -9 -55 -28 -26 -19 -52 -35 -57 -35 -5 0 -12 -7 -15 -16 -4 -9 -9 -14 -12 -11 -4 3 -12 1 -20 -6 -33 -29 -42 -35 -47 -31 -3 3 -8 -4 -12 -15 -3 -12 -13 -21 -21 -21 -8 0 -14 -3 -14 -7 0 -5 -16 -19 -35 -32 -19 -13 -32 -27 -29 -32 3 -5 0 -9 -6 -9 -6 0 -29 -18 -50 -40 -21 -22 -43 -40 -49 -40 -6 0 -8 -6 -5 -14 3 -9 -3 -17 -15 -21 -12 -3 -19 -11 -16 -16 4 -5 -2 -9 -11 -9 -10 0 -15 -3 -11 -6 5 -5 -16 -35 -56 -76 -9 -10 -15 -18 -13 -18 3 0 -8 -15 -25 -32 -16 -18 -29 -38 -29 -45 0 -7 -4 -13 -9 -13 -5 0 -16 -15 -24 -32 -9 -18 -27 -48 -41 -67 -14 -19 -23 -37 -21 -41 3 -4 -2 -13 -10 -20 -8 -7 -15 -19 -15 -26 0 -8 -4 -14 -9 -14 -9 0 -26 -48 -23 -62 1 -5 -2 -8 -7 -8 -10 0 -27 -39 -23 -52 1 -5 -3 -8 -9 -8 -5 0 -7 -4 -4 -10 3 -5 1 -10 -4 -10 -6 0 -10 -3 -9 -7 1 -5 -4 -24 -11 -43 -8 -19 -15 -39 -16 -45 -1 -5 -10 -32 -20 -60 -9 -27 -18 -57 -20 -65 -2 -8 -4 -16 -5 -17 -2 -2 -3 -11 -5 -20 -1 -10 -5 -29 -8 -43 -4 -14 -9 -36 -11 -50 -3 -14 -5 -25 -6 -25 -1 0 -5 -18 -15 -80 -18 -109 -23 -328 -11 -455 4 -41 8 -90 9 -107 1 -18 4 -33 7 -33 4 0 5 -13 4 -30 -1 -16 1 -30 5 -30 5 0 9 -15 10 -32 2 -18 3 -41 4 -50 1 -10 5 -18 9 -18 4 0 8 -13 8 -30 0 -16 5 -30 12 -30 6 0 9 -3 5 -6 -7 -8 22 -107 35 -115 5 -3 8 -8 7 -10 -5 -8 25 -99 33 -99 4 0 8 -8 8 -18 0 -10 5 -23 12 -30 7 -7 9 -12 4 -12 -4 0 0 -7 8 -16 9 -8 16 -24 16 -35 0 -10 4 -19 8 -19 5 0 14 -16 22 -35 8 -19 17 -35 22 -35 4 0 8 -9 8 -19 0 -10 7 -21 15 -25 8 -3 15 -9 14 -13 -4 -21 2 -33 16 -33 8 0 15 -9 15 -20 0 -11 5 -20 10 -20 6 0 10 -7 10 -15 0 -8 5 -15 10 -15 6 0 10 -5 10 -11 0 -7 10 -20 22 -30 11 -11 17 -19 13 -19 -5 0 0 -8 11 -19 34 -33 53 -59 47 -65 -4 -3 1 -6 10 -6 10 0 17 -4 17 -9 0 -12 138 -151 151 -151 6 0 7 -5 4 -10 -3 -6 1 -10 10 -10 9 0 14 -4 11 -9 -6 -9 22 -26 37 -23 4 1 7 -5 7 -13 0 -8 7 -15 16 -15 8 0 12 -5 9 -10 -3 -6 0 -10 8 -10 8 0 22 -9 32 -20 10 -11 24 -20 32 -20 7 0 13 -4 13 -9 0 -6 18 -20 40 -32 22 -13 40 -27 40 -33 0 -5 3 -7 6 -3 4 3 22 -5 40 -20 19 -14 34 -22 34 -17 0 4 12 -3 26 -17 14 -13 28 -23 30 -21 2 1 26 -9 53 -22 27 -14 51 -22 55 -19 3 4 6 1 6 -6 0 -7 4 -9 10 -6 5 3 10 1 10 -4 0 -6 9 -11 20 -11 11 0 20 -5 20 -11 0 -5 4 -7 10 -4 5 3 10 2 10 -4 0 -6 7 -8 15 -5 8 4 15 1 15 -6 0 -6 4 -9 9 -5 5 3 12 1 16 -5 4 -6 11 -8 16 -4 5 3 15 2 22 -3 15 -12 92 -36 112 -36 8 0 15 -4 15 -8 0 -4 8 -8 18 -8 35 0 67 -6 72 -13 3 -4 26 -9 50 -12 25 -2 45 -5 45 -6 0 -1 10 -3 21 -4 24 -3 54 -28 54 -45 0 -6 5 -11 10 -11 6 0 10 -7 10 -15 0 -8 6 -15 14 -15 8 0 17 -9 21 -20 5 -17 135 -158 135 -147 0 3 24 -18 52 -44 29 -27 59 -49 66 -49 7 0 10 -5 7 -10 -3 -6 -2 -10 4 -10 14 0 91 -52 91 -62 0 -4 3 -7 8 -6 9 2 45 -14 52 -22 9 -12 177 -90 194 -90 9 0 16 -4 16 -8 0 -5 7 -9 15 -10 8 -1 22 -3 30 -4 8 -1 15 -4 15 -8 0 -4 6 -7 13 -8 6 0 23 -4 37 -7 14 -4 40 -9 57 -12 18 -3 30 -10 27 -15 -4 -6 2 -5 14 1 16 8 23 8 29 -1 4 -7 24 -14 43 -15 19 -2 58 -5 85 -9 28 -3 65 -6 83 -8 17 -1 35 -5 38 -8 3 -4 18 -3 33 2 15 4 35 3 44 -2 10 -5 17 -5 17 -1 0 4 21 9 48 9 43 1 137 11 137 14 0 1 15 3 34 6 62 8 125 24 204 52 31 11 57 18 57 15 0 -3 7 1 16 8 9 7 25 15 37 16 12 2 24 8 28 14 3 6 10 11 15 11 15 0 99 42 102 50 2 5 7 6 12 3 4 -3 13 2 20 10 7 8 19 15 26 15 8 0 14 4 14 9 0 5 14 14 30 21 17 7 37 22 46 34 8 11 17 19 20 17 8 -5 58 36 132 107 31 28 60 52 65 52 6 0 8 2 5 5 -3 3 15 27 39 53 24 26 51 59 61 75 9 15 20 27 24 27 4 0 8 4 8 10 0 5 7 18 15 27 8 10 16 23 17 28 1 6 6 15 10 20 24 28 78 119 78 131 0 8 5 14 12 14 6 0 8 3 5 7 -4 3 -2 12 4 20 6 7 8 13 4 13 -4 0 -2 6 4 13 14 18 63 147 55 147 -4 0 -2 6 4 13 6 7 13 25 16 40 3 15 8 39 12 54 3 15 7 30 10 34 2 4 7 29 10 56 10 73 12 88 14 88 1 0 3 32 5 70 2 39 4 72 5 75 4 12 -5 156 -15 235 -9 76 -12 89 -18 105 -3 8 -11 38 -17 65 -11 54 -13 59 -24 90 -23 61 -34 91 -35 97 -1 4 -12 29 -24 55 -11 27 -20 51 -19 56 1 4 -2 7 -7 7 -10 0 -27 39 -23 53 1 4 -2 7 -7 7 -5 0 -20 20 -32 45 -12 25 -30 53 -39 63 -9 9 -21 24 -26 33 -22 38 -75 100 -162 188 -52 52 -91 99 -88 107 3 7 0 15 -7 18 -8 3 -9 5 -1 5 8 1 9 12 5 34 -4 17 -7 44 -7 60 1 15 -1 27 -4 27 -3 0 -6 10 -6 23 -1 30 -12 89 -30 167 -9 36 -17 75 -19 86 -2 12 -7 30 -13 40 -6 11 -11 22 -11 26 -3 16 -13 44 -22 61 -5 10 -7 22 -4 27 4 6 1 10 -4 10 -6 0 -10 3 -10 8 1 4 -4 23 -12 42 -7 19 -12 38 -11 43 1 4 -2 7 -7 7 -4 0 -16 20 -25 45 -10 25 -22 45 -27 45 -4 0 -6 7 -3 15 4 8 1 15 -6 15 -6 0 -8 5 -5 10 3 6 1 10 -4 10 -6 0 -11 5 -11 11 0 7 -8 18 -17 26 -10 8 -12 12 -6 8 9 -4 11 -1 7 9 -3 9 -9 16 -13 16 -4 0 -15 14 -24 30 -10 17 -15 30 -11 30 4 0 -3 9 -16 20 -13 11 -20 20 -16 20 7 0 -4 15 -41 54 -12 13 -19 27 -16 30 4 3 1 6 -5 6 -6 0 -14 9 -17 20 -4 11 -11 18 -16 15 -5 -4 -9 0 -9 9 0 8 -13 25 -29 39 -17 14 -27 28 -24 31 4 3 1 6 -6 6 -7 0 -9 5 -5 12 4 6 3 8 -3 5 -5 -4 -25 11 -43 33 -18 22 -37 37 -41 34 -5 -3 -9 1 -9 9 0 7 -30 38 -67 67 -38 30 -72 59 -78 65 -16 18 -193 135 -205 135 -5 0 -10 3 -10 8 0 8 -62 38 -69 33 -2 -2 -8 4 -13 13 -5 9 -13 14 -19 11 -5 -4 -9 -1 -9 5 0 6 -4 8 -10 5 -5 -3 -10 -1 -10 5 0 7 -7 10 -15 6 -8 -3 -15 -2 -15 2 0 7 -17 15 -110 52 -30 12 -63 26 -72 31 -10 5 -26 9 -36 9 -10 0 -23 5 -30 12 -7 7 -12 9 -12 6 0 -4 -29 2 -65 12 -36 10 -66 19 -68 19 -1 -1 -13 2 -27 5 -14 3 -37 8 -52 10 -15 3 -32 7 -37 10 -5 4 -13 1 -17 -5 -4 -8 -8 -8 -13 0 -4 6 -36 13 -71 15 -36 3 -74 7 -85 9 -11 3 -28 0 -39 -5 -10 -6 -16 -6 -13 -1 7 10 -178 11 -189 1 -3 -4 -17 -3 -30 2 -13 5 -24 6 -24 1z m84 -483 c-5 -9 -2 -9 9 1 9 7 17 9 17 4 0 -10 50 -8 78 2 6 2 12 0 12 -6 0 -6 7 -6 20 1 15 8 20 8 20 -1 0 -9 3 -9 14 0 8 7 17 8 20 3 3 -5 22 -9 43 -10 21 -1 49 -4 63 -7 22 -5 53 -11 110 -19 8 -1 22 -5 30 -8 8 -3 38 -12 65 -19 28 -6 55 -16 62 -21 7 -6 17 -7 23 -3 5 3 12 0 15 -7 3 -8 14 -14 23 -15 24 -2 135 -53 143 -66 4 -5 12 -6 18 -3 6 4 11 3 11 -3 0 -5 9 -13 20 -16 11 -4 18 -11 14 -16 -3 -5 -2 -8 3 -7 14 4 53 -13 53 -23 0 -5 7 -9 15 -9 8 0 15 -4 15 -10 0 -5 5 -10 11 -10 6 0 17 -6 24 -12 8 -7 29 -24 46 -38 18 -14 47 -40 65 -57 18 -18 37 -33 44 -33 6 0 9 -4 5 -9 -3 -5 4 -12 15 -16 11 -3 20 -11 20 -17 0 -5 14 -23 31 -39 17 -16 29 -29 26 -29 -2 0 10 -16 29 -37 18 -20 31 -40 28 -45 -3 -4 2 -8 10 -8 9 0 16 -7 16 -15 0 -8 5 -15 10 -15 6 0 10 -6 10 -14 0 -8 7 -22 16 -30 8 -9 13 -16 9 -16 -5 0 4 -12 33 -45 7 -8 11 -15 8 -15 -3 0 8 -25 24 -55 16 -31 24 -52 17 -48 -6 4 -2 -6 11 -21 12 -16 22 -36 22 -45 0 -10 5 -22 12 -29 7 -7 8 -12 4 -12 -5 0 -3 -7 4 -15 7 -8 9 -15 6 -15 -4 0 -2 -9 4 -21 7 -11 14 -32 16 -47 4 -22 3 -24 -11 -12 -8 7 -15 10 -15 7 0 -3 -21 0 -47 8 -27 7 -64 16 -83 19 -19 2 -55 8 -80 11 -25 4 -63 8 -85 9 -22 1 -45 5 -52 9 -6 4 -14 3 -18 -3 -4 -7 -12 -7 -25 0 -13 7 -21 7 -25 0 -5 -8 -11 -8 -19 -1 -7 6 -15 8 -18 5 -4 -3 -35 -7 -70 -10 -130 -8 -251 -33 -378 -78 -41 -15 -79 -28 -85 -29 -24 -7 -130 -61 -133 -69 -2 -4 -9 -8 -16 -8 -17 0 -136 -77 -162 -106 -12 -12 -25 -20 -28 -17 -3 4 -6 0 -6 -7 0 -7 -3 -11 -6 -7 -3 3 -25 -12 -47 -34 -23 -21 -45 -39 -50 -39 -4 0 -5 -4 -2 -10 3 -5 1 -10 -5 -10 -7 0 -21 -11 -32 -25 -11 -14 -24 -22 -30 -19 -6 4 -8 2 -4 -4 3 -6 -4 -18 -16 -26 -12 -9 -19 -16 -15 -16 4 0 -8 -16 -27 -35 -20 -19 -33 -35 -31 -35 3 0 -4 -10 -15 -22 -10 -13 -19 -26 -20 -31 0 -4 -12 -21 -27 -38 -16 -17 -27 -35 -25 -40 1 -5 -3 -9 -9 -9 -5 0 -7 -4 -4 -10 3 -5 2 -10 -3 -10 -7 0 -83 -139 -87 -160 -1 -3 -7 -18 -15 -35 -34 -79 -40 -94 -40 -108 0 -9 -4 -18 -9 -22 -6 -3 -8 -14 -6 -25 2 -11 0 -20 -4 -20 -4 0 -8 -6 -9 -12 0 -7 -4 -26 -7 -43 -4 -16 -8 -39 -10 -50 -1 -11 -4 -20 -5 -20 -1 0 -3 -13 -4 -30 -1 -16 -4 -34 -7 -40 -3 -5 -5 -29 -5 -52 1 -24 -1 -43 -4 -43 -9 0 -6 -205 3 -211 5 -4 5 -14 -1 -26 -6 -11 -7 -25 -2 -33 4 -7 6 -19 3 -26 -2 -6 0 -15 5 -18 5 -3 8 -17 7 -31 -2 -14 0 -25 5 -25 4 0 6 -9 3 -20 -3 -12 -10 -17 -17 -13 -6 4 -20 9 -31 10 -10 2 -22 8 -26 14 -5 9 -23 15 -51 18 -4 1 -14 8 -22 17 -9 9 -22 17 -29 19 -37 9 -57 18 -57 26 0 5 -7 9 -15 9 -8 0 -15 5 -15 10 0 6 -7 10 -15 10 -8 0 -15 5 -15 10 0 6 -7 10 -15 10 -8 0 -15 5 -15 10 0 6 -7 10 -15 10 -8 0 -15 5 -15 10 0 6 -4 10 -10 10 -11 0 -49 31 -118 98 -25 23 -48 42 -52 42 -9 0 -24 31 -21 43 1 5 -2 7 -6 4 -5 -2 -23 11 -41 29 -18 19 -29 34 -25 34 4 0 -5 11 -20 25 -15 14 -27 32 -27 40 0 8 -4 15 -9 15 -10 0 -56 71 -53 83 1 4 -2 7 -8 7 -5 0 -10 5 -10 11 0 6 -7 17 -15 26 -8 8 -13 19 -10 24 4 5 1 9 -4 9 -6 0 -11 9 -11 21 0 11 -4 17 -10 14 -6 -4 -10 5 -10 20 0 17 -4 24 -12 19 -6 -4 -8 -3 -5 3 3 5 -3 26 -13 46 -11 21 -17 37 -14 37 4 0 -1 12 -11 26 -11 18 -12 24 -4 18 11 -6 12 -5 2 8 -7 8 -10 18 -6 21 3 4 1 7 -6 7 -8 0 -11 7 -7 15 3 8 1 15 -5 15 -6 0 -9 6 -6 14 3 7 2 17 -3 22 -5 5 -10 26 -12 47 -1 20 -5 37 -9 37 -3 0 -6 12 -7 28 0 15 -4 43 -8 62 -8 37 -10 331 -3 387 2 18 9 33 14 33 6 0 3 5 -5 10 -8 5 -10 10 -5 10 6 0 10 12 10 28 -1 15 3 35 8 46 5 10 11 30 13 45 3 14 6 33 7 43 2 9 8 23 15 31 7 7 9 16 6 19 -3 4 2 20 11 37 8 17 12 31 8 31 -5 0 -2 4 4 8 7 4 14 17 16 28 1 11 13 37 25 58 12 20 16 34 10 30 -7 -4 -5 2 5 13 9 11 17 25 17 31 0 7 5 12 11 12 5 0 7 5 4 10 -3 6 -3 10 2 10 4 0 15 15 22 33 8 17 20 37 25 43 6 6 29 38 51 69 22 32 63 82 92 112 28 29 48 53 45 53 -4 0 5 8 21 18 15 10 24 22 20 25 -3 4 -2 7 4 7 6 0 28 15 49 34 21 19 42 32 46 30 5 -3 8 2 8 10 0 9 7 16 15 16 8 0 15 5 15 10 0 6 7 10 15 10 8 0 15 5 15 10 0 6 7 10 15 10 8 0 15 5 15 10 0 6 7 10 15 10 8 0 15 4 15 9 0 8 33 24 50 24 3 0 10 7 17 16 7 9 13 12 13 6 0 -5 4 -4 9 3 4 7 17 14 29 15 11 0 18 5 16 9 -5 7 10 12 29 9 4 0 7 3 7 9 0 6 3 9 8 8 4 -1 23 5 42 13 19 9 56 22 83 29 26 8 47 17 47 20 0 3 10 7 23 8 25 2 62 10 62 12 0 2 29 8 75 15 19 4 46 8 60 10 14 3 42 5 63 6 21 1 40 6 43 11 3 4 7 8 10 8 3 0 2 -6 -2 -12z m1144 -1522 c7 -4 12 -3 12 3 0 7 8 7 23 2 13 -5 39 -10 58 -12 19 -2 39 -5 44 -8 6 -3 19 -7 30 -8 11 -2 37 -10 58 -18 20 -8 37 -13 37 -10 0 2 28 -10 63 -28 53 -27 62 -36 62 -59 1 -16 -3 -28 -8 -28 -5 0 -4 -7 3 -15 8 -9 8 -15 2 -15 -6 0 -11 -8 -10 -17 0 -10 -8 -45 -17 -78 -10 -33 -19 -67 -20 -75 -1 -8 -9 -31 -16 -50 -7 -19 -12 -38 -11 -42 1 -5 -3 -8 -9 -8 -5 0 -8 -4 -4 -9 3 -5 0 -15 -7 -23 -7 -7 -15 -22 -16 -33 -2 -11 -8 -22 -13 -23 -5 -2 -7 -7 -4 -12 3 -5 -2 -15 -10 -24 -9 -8 -16 -19 -17 -23 -4 -27 -11 -43 -19 -43 -5 0 -9 -5 -9 -10 0 -11 -67 -116 -87 -138 -7 -7 -13 -17 -13 -21 0 -12 -214 -231 -225 -231 -6 0 -17 -9 -25 -20 -8 -11 -20 -20 -26 -20 -7 0 -21 -10 -31 -23 -10 -13 -24 -22 -32 -19 -8 3 -11 0 -7 -6 3 -5 -6 -13 -19 -16 -14 -4 -23 -11 -20 -16 3 -6 -3 -10 -14 -10 -11 0 -26 -7 -34 -15 -8 -8 -17 -11 -21 -8 -3 4 -6 2 -6 -3 0 -6 -20 -18 -45 -28 -25 -11 -45 -23 -45 -28 0 -5 -5 -6 -12 -2 -6 4 -17 -1 -25 -11 -9 -14 -13 -15 -13 -4 0 11 -2 11 -9 1 -4 -7 -18 -14 -29 -15 -12 -1 -22 -5 -22 -10 0 -4 -6 -7 -12 -6 -7 1 -26 -3 -41 -9 -16 -7 -35 -12 -43 -12 -8 0 -14 -5 -14 -11 0 -5 -4 -8 -9 -5 -5 4 -37 -1 -70 -10 -34 -8 -66 -12 -71 -9 -6 3 -10 1 -10 -5 0 -6 -5 -8 -11 -4 -6 3 -15 0 -20 -7 -6 -10 -9 -10 -9 -2 0 7 -6 10 -12 8 -7 -3 -31 -7 -53 -9 -22 -2 -44 -5 -50 -7 -17 -4 -65 13 -60 22 3 5 0 21 -8 36 -8 15 -12 34 -10 41 3 6 1 12 -4 12 -6 0 -10 6 -11 13 -3 38 -7 57 -12 57 -5 0 -8 28 -13 127 -1 24 -6 43 -11 43 -6 0 -5 5 1 11 8 8 8 20 3 35 -5 13 -6 24 -2 24 4 0 7 19 6 42 -1 24 3 51 8 61 6 12 5 17 -4 17 -9 0 -10 3 -2 8 6 4 10 15 8 25 -1 9 2 17 7 17 5 0 7 14 5 30 -2 17 1 30 5 30 5 0 9 9 9 20 0 11 4 20 10 20 5 0 7 6 4 13 -2 7 2 27 11 43 8 16 15 35 15 42 0 6 4 12 9 12 6 0 8 9 6 20 -2 11 1 20 7 20 6 0 8 3 5 7 -4 3 2 13 13 20 11 8 18 18 15 23 -3 5 2 16 11 24 8 9 12 16 8 16 -4 0 2 9 14 20 12 12 22 27 22 34 0 8 7 17 16 20 9 4 15 9 12 12 -7 7 145 164 159 164 6 0 13 4 15 8 4 11 115 82 128 82 5 0 13 6 17 13 4 6 13 12 18 13 6 0 33 10 60 23 94 43 185 68 280 77 27 3 51 7 52 8 6 6 150 -1 161 -8z m827 -566 c14 -27 22 -50 18 -50 -5 0 -3 -4 2 -8 11 -7 56 -134 54 -149 -1 -4 0 -10 1 -13 16 -43 34 -282 22 -304 -3 -5 -6 -32 -8 -60 -2 -28 -7 -58 -10 -66 -3 -8 -8 -24 -10 -36 -8 -40 -43 -143 -60 -176 -10 -18 -18 -35 -19 -38 -1 -9 -49 -85 -58 -91 -5 -3 -9 -10 -9 -15 -1 -14 -60 -94 -70 -94 -4 0 -8 -7 -8 -16 0 -8 -4 -13 -8 -10 -5 3 -15 -6 -22 -19 -7 -14 -17 -25 -22 -25 -4 0 -25 -18 -47 -40 -21 -22 -41 -37 -44 -33 -4 3 -9 -2 -13 -11 -3 -9 -12 -16 -20 -16 -8 0 -14 -4 -14 -10 0 -5 -7 -10 -15 -10 -8 0 -15 -4 -15 -10 0 -5 -7 -10 -15 -10 -8 0 -15 -4 -15 -10 0 -5 -3 -9 -7 -8 -5 0 -43 -15 -86 -36 -80 -37 -198 -72 -278 -82 -62 -8 -272 -12 -284 -5 -5 3 -17 6 -25 8 -49 7 -75 12 -77 13 -2 2 -6 3 -10 4 -42 8 -103 30 -103 37 0 5 -7 6 -15 3 -8 -4 -15 -1 -15 5 0 6 -7 8 -15 5 -8 -4 -15 -1 -15 5 0 6 -9 11 -20 11 -11 0 -20 4 -20 8 0 4 -16 14 -35 21 -19 7 -35 16 -35 20 0 5 -9 11 -20 14 -24 6 -26 22 -4 31 10 4 13 2 8 -7 -6 -9 -4 -9 7 -1 13 11 76 28 81 23 2 -1 14 3 27 10 13 7 38 15 55 18 17 3 33 9 36 13 3 5 17 11 32 14 15 2 42 11 60 19 51 23 72 30 81 29 4 -1 7 3 7 9 0 5 4 8 9 5 5 -3 14 1 21 9 7 8 16 12 21 9 5 -3 9 0 9 6 0 6 5 8 10 5 6 -3 10 -1 10 4 0 6 8 11 18 11 10 0 28 9 39 19 12 11 24 17 27 14 3 -4 6 0 6 7 0 7 3 11 6 7 6 -6 17 1 53 34 9 8 22 14 27 12 5 -2 20 7 34 19 14 13 37 29 52 37 15 8 25 18 22 23 -3 4 2 8 10 8 9 0 16 5 16 10 0 6 7 10 16 10 8 0 12 5 9 10 -3 6 0 10 7 10 8 0 21 8 29 18 9 9 43 41 77 71 34 30 59 58 56 63 -3 4 -1 8 4 8 14 0 52 36 52 49 0 7 5 9 10 6 6 -3 10 -2 10 3 0 5 9 20 21 33 11 13 29 34 40 47 10 12 17 22 14 22 -2 0 9 14 25 32 16 17 27 35 24 40 -3 4 0 8 6 8 6 0 15 11 22 25 6 13 15 22 20 19 5 -3 8 -2 7 3 -4 16 13 63 21 58 4 -3 10 5 14 18 3 12 4 22 3 23 -1 0 6 8 16 18 9 10 17 23 17 31 0 7 5 15 10 17 6 2 12 13 13 25 0 13 7 25 15 28 8 3 11 12 8 20 -3 8 -2 15 2 15 7 0 29 46 37 75 2 6 12 33 23 61 12 29 18 55 15 58 -4 3 -1 6 6 6 7 0 9 5 6 10 -3 6 -4 10 -1 10 3 0 17 -22 31 -50z" transform="translate(0.000000,500.000000) scale(0.100000,-0.100000)"/></g></svg>